%
M48
M72
T01C0.01969
T02C0.02362
T03C0.03150
T04C0.03200
T05C0.03543
T06C0.04000
T07C0.04724
%
T01
X23107Y45000
X30107Y67000
X29107Y79000
X38107Y80000
X40107Y76000
X44107Y77000
X44107Y82000
X41107Y85000
X40107Y91000
X36107Y97000
X23107Y115000
X31107Y122000
X40107Y122000
X50107Y94000
X50107Y88000
X50107Y82000
X56107Y75000
X58607Y71500
X62107Y61000
X76107Y69000
X63107Y92000
X70107Y98000
X70107Y108000
X70107Y112000
X75107Y141000
X75107Y146000
X75107Y151000
X41107Y70000
X22107Y141000
T02
X81107Y63000
T03
X67107Y57000
X59107Y27000
T04
X62607Y114000
X43607Y114000
T05
X54107Y19000
T06
X77107Y32000
X77107Y42000
X77107Y52000
T07
X70284Y24961
X70284Y10394
X29929Y10394
X29929Y24961
M30
