G75*
%MOIN*%
%OFA0B0*%
%FSLAX25Y25*%
%IPPOS*%
%LPD*%
%AMOC8*
5,1,8,0,0,1.08239X$1,22.5*
%
%ADD10R,0.05118X0.05906*%
%ADD11R,0.00787X0.03937*%
%ADD12R,0.03937X0.00787*%
%ADD13C,0.05200*%
%ADD14R,0.06299X0.05118*%
%ADD15R,0.04724X0.04724*%
%ADD16R,0.05000X0.15748*%
%ADD17C,0.07400*%
%ADD18C,0.07087*%
%ADD19R,0.01575X0.09055*%
%ADD20C,0.01000*%
%ADD21C,0.03569*%
%ADD22C,0.01600*%
%ADD23C,0.00800*%
%ADD24R,0.05315X0.05315*%
%ADD25R,0.03962X0.03962*%
%ADD26C,0.02400*%
%ADD27C,0.04750*%
D10*
X0068366Y0063000D03*
X0075847Y0063000D03*
D11*
X0061933Y0065283D03*
X0059965Y0065283D03*
X0057996Y0065283D03*
X0056028Y0065283D03*
X0054059Y0065283D03*
X0052091Y0065283D03*
X0050122Y0065283D03*
X0048154Y0065283D03*
X0046185Y0065283D03*
X0044217Y0065283D03*
X0042248Y0065283D03*
X0040280Y0065283D03*
X0040280Y0100717D03*
X0042248Y0100717D03*
X0044217Y0100717D03*
X0046185Y0100717D03*
X0048154Y0100717D03*
X0050122Y0100717D03*
X0052091Y0100717D03*
X0054059Y0100717D03*
X0056028Y0100717D03*
X0057996Y0100717D03*
X0059965Y0100717D03*
X0061933Y0100717D03*
D12*
X0068823Y0093827D03*
X0068823Y0091858D03*
X0068823Y0089890D03*
X0068823Y0087921D03*
X0068823Y0085953D03*
X0068823Y0083984D03*
X0068823Y0082016D03*
X0068823Y0080047D03*
X0068823Y0078079D03*
X0068823Y0076110D03*
X0068823Y0074142D03*
X0068823Y0072173D03*
X0033390Y0072173D03*
X0033390Y0074142D03*
X0033390Y0076110D03*
X0033390Y0078079D03*
X0033390Y0080047D03*
X0033390Y0082016D03*
X0033390Y0083984D03*
X0033390Y0085953D03*
X0033390Y0087921D03*
X0033390Y0089890D03*
X0033390Y0091858D03*
X0033390Y0093827D03*
D13*
X0043607Y0114000D03*
X0062607Y0114000D03*
D14*
X0070107Y0128260D03*
X0070107Y0135740D03*
X0076107Y0102740D03*
X0076107Y0095260D03*
X0076107Y0081740D03*
X0076107Y0074260D03*
X0055107Y0045740D03*
X0055107Y0038260D03*
X0046107Y0038260D03*
X0046107Y0045740D03*
X0037107Y0045740D03*
X0037107Y0038260D03*
X0024107Y0066260D03*
X0024107Y0073740D03*
X0024107Y0085260D03*
X0024107Y0092740D03*
X0029107Y0128260D03*
X0029107Y0135740D03*
X0039107Y0135740D03*
X0039107Y0128260D03*
X0049107Y0128260D03*
X0049107Y0135740D03*
D15*
X0023107Y0109134D03*
X0023107Y0100866D03*
X0023107Y0058134D03*
X0023107Y0049866D03*
D16*
X0029107Y0151000D03*
X0039107Y0151000D03*
X0049107Y0151000D03*
X0059107Y0151000D03*
X0069107Y0151000D03*
D17*
X0077107Y0052000D03*
X0077107Y0042000D03*
X0077107Y0032000D03*
D18*
X0070284Y0024961D03*
X0070284Y0010394D03*
X0029929Y0010394D03*
X0029929Y0024961D03*
D19*
X0044988Y0026654D03*
X0047547Y0026654D03*
X0050107Y0026654D03*
X0052666Y0026654D03*
X0055225Y0026654D03*
D20*
X0068107Y0041000D02*
X0068107Y0050000D01*
X0057996Y0060110D01*
X0057996Y0065283D01*
X0059965Y0065283D02*
X0059965Y0063142D01*
X0062107Y0061000D01*
X0061933Y0065173D02*
X0061933Y0065283D01*
X0066083Y0065283D01*
X0068366Y0063000D01*
X0072107Y0057000D02*
X0071107Y0056000D01*
X0071107Y0048000D01*
X0077107Y0042000D01*
X0068107Y0041000D02*
X0077107Y0032000D01*
X0072107Y0057000D02*
X0072107Y0071000D01*
X0070933Y0072173D01*
X0068823Y0072173D01*
X0076107Y0074260D02*
X0076107Y0069000D01*
X0075847Y0063000D02*
X0081107Y0063000D01*
X0076107Y0081740D02*
X0071894Y0085953D01*
X0068823Y0085953D01*
X0068823Y0091858D02*
X0063248Y0091858D01*
X0063107Y0092000D01*
X0065107Y0098000D02*
X0062390Y0100717D01*
X0061933Y0100717D01*
X0066107Y0107000D02*
X0070107Y0103000D01*
X0075847Y0103000D01*
X0076107Y0102740D01*
X0076107Y0095260D02*
X0075673Y0093827D01*
X0068823Y0093827D01*
X0068823Y0096717D01*
X0070107Y0098000D01*
X0066107Y0107000D02*
X0066107Y0117000D01*
X0065107Y0118000D01*
X0042107Y0118000D01*
X0039107Y0115000D01*
X0039107Y0113000D01*
X0042107Y0110000D01*
X0044107Y0110000D01*
X0050107Y0104000D01*
X0050107Y0100732D01*
X0050122Y0100717D01*
X0048154Y0100717D02*
X0048154Y0095953D01*
X0050107Y0094000D01*
X0050107Y0088000D02*
X0053107Y0085000D01*
X0053107Y0076000D01*
X0046185Y0069079D01*
X0046185Y0065283D01*
X0044217Y0065283D02*
X0044217Y0070110D01*
X0050107Y0076000D01*
X0050107Y0082000D01*
X0047107Y0075000D02*
X0045107Y0073000D01*
X0039107Y0073000D01*
X0038280Y0072173D01*
X0033390Y0072173D01*
X0033390Y0074142D02*
X0037965Y0074142D01*
X0040107Y0076000D01*
X0041107Y0080000D02*
X0044107Y0077000D01*
X0047107Y0075000D02*
X0047107Y0091000D01*
X0047107Y0095000D01*
X0046185Y0095921D01*
X0046185Y0100717D01*
X0044217Y0100717D02*
X0044217Y0103890D01*
X0037107Y0111000D01*
X0037107Y0126260D01*
X0039107Y0128260D01*
X0041107Y0123000D02*
X0040107Y0122000D01*
X0041107Y0123000D02*
X0065107Y0123000D01*
X0069107Y0128000D01*
X0070107Y0128260D01*
X0070107Y0135740D02*
X0069107Y0151000D01*
X0049107Y0151000D02*
X0049107Y0135740D01*
X0049107Y0129000D02*
X0049107Y0128260D01*
X0043607Y0114000D02*
X0052091Y0105516D01*
X0052091Y0100717D01*
X0054059Y0100717D02*
X0054059Y0105453D01*
X0062607Y0114000D01*
X0057107Y0091000D02*
X0047107Y0091000D01*
X0045107Y0094000D02*
X0045107Y0083000D01*
X0044107Y0082000D01*
X0041107Y0080000D02*
X0041107Y0085000D01*
X0041028Y0087921D02*
X0043107Y0090000D01*
X0043107Y0093000D01*
X0042248Y0093858D01*
X0042248Y0100717D01*
X0042248Y0102858D01*
X0034607Y0110500D01*
X0034107Y0111000D01*
X0031107Y0104000D02*
X0034390Y0100717D01*
X0036107Y0100717D01*
X0036107Y0097000D01*
X0037280Y0093827D02*
X0040107Y0091000D01*
X0038996Y0089890D01*
X0033390Y0089890D01*
X0033390Y0091858D02*
X0030965Y0091858D01*
X0030107Y0091000D01*
X0030107Y0080000D01*
X0029107Y0079000D01*
X0027477Y0076110D02*
X0024107Y0073740D01*
X0027477Y0076110D02*
X0033390Y0076110D01*
X0033390Y0080047D02*
X0038059Y0080047D01*
X0038107Y0080000D01*
X0036138Y0085953D02*
X0038107Y0087921D01*
X0041028Y0087921D01*
X0038107Y0087921D02*
X0033390Y0087921D01*
X0033390Y0085953D02*
X0036138Y0085953D01*
X0037280Y0093827D02*
X0033390Y0093827D01*
X0031390Y0093827D01*
X0027107Y0098110D01*
X0027107Y0124000D01*
X0029107Y0126000D01*
X0029107Y0128260D01*
X0031107Y0122000D02*
X0031107Y0104000D01*
X0036107Y0100717D02*
X0040280Y0100717D01*
X0044217Y0100717D02*
X0044217Y0094890D01*
X0045107Y0094000D01*
X0055107Y0075000D02*
X0050107Y0070000D01*
X0050107Y0065299D01*
X0050122Y0065283D01*
X0052091Y0065283D02*
X0052107Y0065299D01*
X0052107Y0070000D01*
X0053607Y0071500D01*
X0058607Y0071500D01*
X0056107Y0075000D02*
X0055107Y0075000D01*
X0042248Y0068858D02*
X0042248Y0065283D01*
X0040280Y0065283D02*
X0038563Y0067000D01*
X0030107Y0067000D01*
X0023107Y0049866D02*
X0023107Y0045000D01*
X0042248Y0068858D02*
X0041107Y0070000D01*
X0024107Y0092740D02*
X0024107Y0099866D01*
X0023107Y0100866D01*
X0023107Y0109134D02*
X0023107Y0115000D01*
X0029107Y0135740D02*
X0029107Y0151000D01*
X0039107Y0151000D02*
X0039107Y0135740D01*
X0039107Y0151000D02*
X0039107Y0153000D01*
D21*
X0023107Y0045000D03*
X0030107Y0067000D03*
X0029107Y0079000D03*
X0038107Y0080000D03*
X0040107Y0076000D03*
X0044107Y0077000D03*
X0044107Y0082000D03*
X0041107Y0085000D03*
X0040107Y0091000D03*
X0036107Y0097000D03*
X0023107Y0115000D03*
X0031107Y0122000D03*
X0040107Y0122000D03*
X0050107Y0094000D03*
X0050107Y0088000D03*
X0050107Y0082000D03*
X0056107Y0075000D03*
X0058607Y0071500D03*
X0062107Y0061000D03*
X0076107Y0069000D03*
X0063107Y0092000D03*
X0070107Y0098000D03*
X0070107Y0108000D03*
X0070107Y0112000D03*
X0075107Y0141000D03*
X0075107Y0146000D03*
X0075107Y0151000D03*
X0041107Y0070000D03*
X0022107Y0141000D03*
D22*
X0024157Y0139045D02*
X0024157Y0132436D01*
X0024592Y0132000D01*
X0024157Y0131564D01*
X0024157Y0124955D01*
X0024807Y0124306D01*
X0024807Y0113296D01*
X0023488Y0113296D01*
X0023488Y0109515D01*
X0022725Y0109515D01*
X0022725Y0108753D01*
X0018944Y0108753D01*
X0018944Y0106535D01*
X0019067Y0106077D01*
X0019304Y0105666D01*
X0019639Y0105331D01*
X0020050Y0105094D01*
X0020296Y0105028D01*
X0019999Y0105028D01*
X0018944Y0103974D01*
X0018944Y0100000D01*
X0018907Y0100000D01*
X0018907Y0156901D01*
X0024807Y0156901D01*
X0024807Y0142380D01*
X0025861Y0141326D01*
X0026807Y0141326D01*
X0026807Y0140099D01*
X0025211Y0140099D01*
X0024157Y0139045D01*
X0024157Y0138676D02*
X0018907Y0138676D01*
X0018907Y0137078D02*
X0024157Y0137078D01*
X0024157Y0135479D02*
X0018907Y0135479D01*
X0018907Y0133881D02*
X0024157Y0133881D01*
X0024310Y0132282D02*
X0018907Y0132282D01*
X0018907Y0130684D02*
X0024157Y0130684D01*
X0024157Y0129085D02*
X0018907Y0129085D01*
X0018907Y0127487D02*
X0024157Y0127487D01*
X0024157Y0125888D02*
X0018907Y0125888D01*
X0018907Y0124290D02*
X0024807Y0124290D01*
X0024807Y0122691D02*
X0018907Y0122691D01*
X0018907Y0121093D02*
X0024807Y0121093D01*
X0024807Y0119494D02*
X0018907Y0119494D01*
X0018907Y0117896D02*
X0024807Y0117896D01*
X0024807Y0116297D02*
X0018907Y0116297D01*
X0018907Y0114699D02*
X0024807Y0114699D01*
X0023488Y0113100D02*
X0022725Y0113100D01*
X0022725Y0113296D02*
X0020507Y0113296D01*
X0020050Y0113173D01*
X0019639Y0112936D01*
X0019304Y0112601D01*
X0019067Y0112191D01*
X0018944Y0111733D01*
X0018944Y0109515D01*
X0022725Y0109515D01*
X0022725Y0113296D01*
X0022725Y0111502D02*
X0023488Y0111502D01*
X0023488Y0109903D02*
X0022725Y0109903D01*
X0019923Y0113100D02*
X0018907Y0113100D01*
X0018907Y0111502D02*
X0018944Y0111502D01*
X0018907Y0109903D02*
X0018944Y0109903D01*
X0018907Y0108305D02*
X0018944Y0108305D01*
X0018907Y0106706D02*
X0018944Y0106706D01*
X0018907Y0105108D02*
X0020026Y0105108D01*
X0018944Y0103509D02*
X0018907Y0103509D01*
X0018907Y0101911D02*
X0018944Y0101911D01*
X0018907Y0100312D02*
X0018944Y0100312D01*
X0024107Y0066260D02*
X0023107Y0065260D01*
X0023107Y0058134D01*
X0044988Y0026654D02*
X0044988Y0016118D01*
X0048107Y0013000D01*
X0057107Y0013000D01*
X0059107Y0015000D01*
X0059107Y0027000D01*
X0068366Y0063000D02*
X0069107Y0063260D01*
X0081056Y0100000D02*
X0081056Y0106045D01*
X0080002Y0107099D01*
X0072211Y0107099D01*
X0071157Y0106045D01*
X0071157Y0105300D01*
X0071059Y0105300D01*
X0068407Y0107953D01*
X0068407Y0117953D01*
X0067059Y0119300D01*
X0066059Y0120300D01*
X0043282Y0120300D01*
X0043448Y0120700D01*
X0064300Y0120700D01*
X0064414Y0120609D01*
X0065234Y0120700D01*
X0066059Y0120700D01*
X0066162Y0120803D01*
X0066307Y0120819D01*
X0066823Y0121464D01*
X0067407Y0122047D01*
X0067407Y0122193D01*
X0068773Y0123901D01*
X0074002Y0123901D01*
X0075056Y0124955D01*
X0075056Y0131564D01*
X0074621Y0132000D01*
X0075056Y0132436D01*
X0075056Y0139045D01*
X0074002Y0140099D01*
X0072126Y0140099D01*
X0072045Y0141326D01*
X0072352Y0141326D01*
X0073407Y0142380D01*
X0073407Y0156901D01*
X0081107Y0156901D01*
X0081107Y0100000D01*
X0081056Y0100000D01*
X0081056Y0100312D02*
X0081107Y0100312D01*
X0081056Y0101911D02*
X0081107Y0101911D01*
X0081056Y0103509D02*
X0081107Y0103509D01*
X0081056Y0105108D02*
X0081107Y0105108D01*
X0081107Y0106706D02*
X0080395Y0106706D01*
X0081107Y0108305D02*
X0068407Y0108305D01*
X0068407Y0109903D02*
X0081107Y0109903D01*
X0081107Y0111502D02*
X0068407Y0111502D01*
X0068407Y0113100D02*
X0081107Y0113100D01*
X0081107Y0114699D02*
X0068407Y0114699D01*
X0068407Y0116297D02*
X0081107Y0116297D01*
X0081107Y0117896D02*
X0068407Y0117896D01*
X0066865Y0119494D02*
X0081107Y0119494D01*
X0081107Y0121093D02*
X0066526Y0121093D01*
X0067805Y0122691D02*
X0081107Y0122691D01*
X0081107Y0124290D02*
X0074391Y0124290D01*
X0075056Y0125888D02*
X0081107Y0125888D01*
X0081107Y0127487D02*
X0075056Y0127487D01*
X0075056Y0129085D02*
X0081107Y0129085D01*
X0081107Y0130684D02*
X0075056Y0130684D01*
X0074903Y0132282D02*
X0081107Y0132282D01*
X0081107Y0133881D02*
X0075056Y0133881D01*
X0075056Y0135479D02*
X0081107Y0135479D01*
X0081107Y0137078D02*
X0075056Y0137078D01*
X0075056Y0138676D02*
X0081107Y0138676D01*
X0081107Y0140275D02*
X0072114Y0140275D01*
X0072900Y0141873D02*
X0081107Y0141873D01*
X0081107Y0143472D02*
X0073407Y0143472D01*
X0073407Y0145070D02*
X0081107Y0145070D01*
X0081107Y0146669D02*
X0073407Y0146669D01*
X0073407Y0148268D02*
X0081107Y0148268D01*
X0081107Y0149866D02*
X0073407Y0149866D01*
X0073407Y0151465D02*
X0081107Y0151465D01*
X0081107Y0153063D02*
X0073407Y0153063D01*
X0073407Y0154662D02*
X0081107Y0154662D01*
X0081107Y0156260D02*
X0073407Y0156260D01*
X0071818Y0106706D02*
X0069653Y0106706D01*
X0026807Y0140275D02*
X0018907Y0140275D01*
X0018907Y0141873D02*
X0025313Y0141873D01*
X0024807Y0143472D02*
X0018907Y0143472D01*
X0018907Y0145070D02*
X0024807Y0145070D01*
X0024807Y0146669D02*
X0018907Y0146669D01*
X0018907Y0148268D02*
X0024807Y0148268D01*
X0024807Y0149866D02*
X0018907Y0149866D01*
X0018907Y0151465D02*
X0024807Y0151465D01*
X0024807Y0153063D02*
X0018907Y0153063D01*
X0018907Y0154662D02*
X0024807Y0154662D01*
X0024807Y0156260D02*
X0018907Y0156260D01*
D23*
X0035107Y0132000D02*
X0034107Y0131000D01*
X0034107Y0111000D01*
X0035107Y0132000D02*
X0046107Y0132000D01*
X0049107Y0129000D01*
X0024107Y0085260D02*
X0020366Y0085260D01*
X0019107Y0084000D01*
X0019107Y0071000D01*
X0020107Y0070000D01*
X0031217Y0070000D01*
X0033390Y0072173D01*
X0054059Y0057953D02*
X0046107Y0050000D01*
X0046107Y0045740D01*
X0050366Y0042000D02*
X0055107Y0045740D01*
X0054366Y0045000D01*
X0054107Y0045000D01*
X0056028Y0048921D01*
X0056028Y0065283D01*
X0054059Y0065283D02*
X0054059Y0057953D01*
X0048154Y0057787D02*
X0037107Y0045740D01*
X0037107Y0042000D02*
X0036107Y0041000D01*
X0037107Y0038260D01*
X0037107Y0042000D02*
X0050366Y0042000D01*
X0046107Y0038260D02*
X0047547Y0035819D01*
X0047547Y0026654D01*
X0050107Y0026654D02*
X0050107Y0034260D01*
X0055107Y0038260D01*
X0055225Y0026654D02*
X0055225Y0020118D01*
X0054107Y0019000D01*
X0052666Y0020441D01*
X0052666Y0026654D01*
X0048154Y0057787D02*
X0048154Y0065283D01*
D24*
X0054107Y0019000D03*
D25*
X0081107Y0063000D03*
D26*
X0068366Y0063000D02*
X0067107Y0061740D01*
X0067107Y0057000D01*
X0068366Y0063000D02*
X0068366Y0067740D01*
X0063107Y0073000D01*
X0063107Y0085000D01*
X0057107Y0091000D01*
X0064107Y0098000D01*
X0065107Y0098000D01*
X0070107Y0098000D01*
D27*
X0067107Y0057000D03*
X0059107Y0027000D03*
M02*
