G75*
%MOIN*%
%OFA0B0*%
%FSLAX25Y25*%
%IPPOS*%
%LPD*%
%AMOC8*
5,1,8,0,0,1.08239X$1,22.5*
%
%ADD10C,0.00900*%
%ADD11C,0.00600*%
%ADD12C,0.00200*%
%ADD13C,0.00400*%
%ADD14C,0.00500*%
D10*
X0022240Y0145450D02*
X0021557Y0146134D01*
X0021557Y0147502D01*
X0022240Y0148186D01*
X0023608Y0148186D01*
X0023608Y0146818D01*
X0024976Y0145450D02*
X0022240Y0145450D01*
X0021557Y0150054D02*
X0025660Y0150054D01*
X0021557Y0152790D01*
X0025660Y0152790D01*
X0025660Y0154658D02*
X0025660Y0156710D01*
X0024976Y0157394D01*
X0022240Y0157394D01*
X0021557Y0156710D01*
X0021557Y0154658D01*
X0025660Y0154658D01*
X0024976Y0148186D02*
X0025660Y0147502D01*
X0025660Y0146134D01*
X0024976Y0145450D01*
X0042057Y0144950D02*
X0046160Y0144950D01*
X0046160Y0147002D01*
X0045476Y0147686D01*
X0044108Y0147686D01*
X0043424Y0147002D01*
X0043424Y0144950D01*
X0043424Y0146318D02*
X0042057Y0147686D01*
X0042057Y0149554D02*
X0046160Y0152290D01*
X0046160Y0154158D02*
X0046160Y0156210D01*
X0045476Y0156894D01*
X0042740Y0156894D01*
X0042057Y0156210D01*
X0042057Y0154158D01*
X0046160Y0154158D01*
X0042057Y0152290D02*
X0046160Y0149554D01*
X0052057Y0149554D02*
X0056160Y0152290D01*
X0056160Y0154158D02*
X0056160Y0156210D01*
X0055476Y0156894D01*
X0052740Y0156894D01*
X0052057Y0156210D01*
X0052057Y0154158D01*
X0056160Y0154158D01*
X0052057Y0152290D02*
X0056160Y0149554D01*
X0056160Y0147686D02*
X0056160Y0144950D01*
X0056160Y0146318D02*
X0052057Y0146318D01*
X0062057Y0145634D02*
X0062057Y0147002D01*
X0062740Y0147686D01*
X0064108Y0147686D01*
X0064108Y0146318D01*
X0065476Y0144950D02*
X0062740Y0144950D01*
X0062057Y0145634D01*
X0062057Y0149554D02*
X0066160Y0149554D01*
X0062057Y0152290D01*
X0066160Y0152290D01*
X0066160Y0154158D02*
X0066160Y0156210D01*
X0065476Y0156894D01*
X0062740Y0156894D01*
X0062057Y0156210D01*
X0062057Y0154158D01*
X0066160Y0154158D01*
X0065476Y0147686D02*
X0066160Y0147002D01*
X0066160Y0145634D01*
X0065476Y0144950D01*
D11*
X0035509Y0144800D02*
X0033774Y0144800D01*
X0032907Y0145667D01*
X0033774Y0146535D01*
X0035509Y0146535D01*
X0035509Y0147747D02*
X0035509Y0149481D01*
X0035509Y0148614D02*
X0032907Y0148614D01*
X0032907Y0150693D02*
X0034641Y0150693D01*
X0033774Y0150693D02*
X0034641Y0151560D01*
X0034641Y0151994D01*
X0034208Y0153148D02*
X0033340Y0153148D01*
X0032907Y0153582D01*
X0032907Y0154450D01*
X0033774Y0154883D02*
X0033774Y0153148D01*
X0034208Y0153148D02*
X0034641Y0153582D01*
X0034641Y0154450D01*
X0034208Y0154883D01*
X0033774Y0154883D01*
X0034208Y0156095D02*
X0034208Y0156962D01*
X0035075Y0156529D02*
X0035509Y0156962D01*
X0035075Y0156529D02*
X0032907Y0156529D01*
X0037807Y0029807D02*
X0062406Y0029807D01*
X0062406Y0016185D01*
X0037807Y0016185D01*
X0037807Y0029807D01*
D12*
X0035339Y0043130D02*
X0035339Y0050870D01*
X0050874Y0050870D01*
X0050874Y0043130D01*
X0035339Y0043130D01*
X0052339Y0043130D02*
X0052339Y0050870D01*
X0067874Y0050870D01*
X0067874Y0043130D01*
X0052339Y0043130D01*
X0066236Y0080232D02*
X0073977Y0080232D01*
X0073977Y0095768D01*
X0066236Y0095768D01*
X0066236Y0080232D01*
X0061977Y0095232D02*
X0054236Y0095232D01*
X0054236Y0110768D01*
X0061977Y0110768D01*
X0061977Y0095232D01*
X0052977Y0095232D02*
X0052977Y0110768D01*
X0045236Y0110768D01*
X0045236Y0095232D01*
X0052977Y0095232D01*
X0052977Y0124232D02*
X0045236Y0124232D01*
X0045236Y0139768D01*
X0052977Y0139768D01*
X0052977Y0124232D01*
X0055236Y0124232D02*
X0062977Y0124232D01*
X0062977Y0139768D01*
X0055236Y0139768D01*
X0055236Y0124232D01*
X0042977Y0124232D02*
X0035236Y0124232D01*
X0035236Y0139768D01*
X0042977Y0139768D01*
X0042977Y0124232D01*
D13*
X0047307Y0121898D02*
X0047307Y0120363D01*
X0048074Y0119596D01*
X0047307Y0118061D02*
X0047307Y0114992D01*
X0047307Y0113457D02*
X0048841Y0111923D01*
X0048841Y0112690D02*
X0048841Y0110388D01*
X0047307Y0110388D02*
X0051910Y0110388D01*
X0051910Y0112690D01*
X0051143Y0113457D01*
X0049608Y0113457D01*
X0048841Y0112690D01*
X0050376Y0114992D02*
X0051910Y0116527D01*
X0047307Y0116527D01*
X0049608Y0121131D02*
X0049608Y0121898D01*
X0048841Y0122665D01*
X0048074Y0122665D01*
X0047307Y0121898D01*
X0049608Y0121898D02*
X0050376Y0122665D01*
X0051143Y0122665D01*
X0051910Y0121898D01*
X0051910Y0120363D01*
X0051143Y0119596D01*
X0043910Y0106665D02*
X0043910Y0103596D01*
X0041608Y0103596D01*
X0042376Y0105131D01*
X0042376Y0105898D01*
X0041608Y0106665D01*
X0040074Y0106665D01*
X0039307Y0105898D01*
X0039307Y0104363D01*
X0040074Y0103596D01*
X0040074Y0102061D02*
X0039307Y0101294D01*
X0039307Y0099759D01*
X0040074Y0098992D01*
X0043143Y0098992D01*
X0043910Y0099759D01*
X0043910Y0101294D01*
X0043143Y0102061D01*
X0033910Y0127992D02*
X0029307Y0127992D01*
X0030841Y0127992D02*
X0030841Y0130294D01*
X0031608Y0131061D01*
X0033143Y0131061D01*
X0033910Y0130294D01*
X0033910Y0127992D01*
X0033143Y0132596D02*
X0032376Y0132596D01*
X0031608Y0133363D01*
X0031608Y0134898D01*
X0030841Y0135665D01*
X0030074Y0135665D01*
X0029307Y0134898D01*
X0029307Y0133363D01*
X0030074Y0132596D01*
X0030841Y0132596D01*
X0031608Y0133363D01*
X0031608Y0134898D02*
X0032376Y0135665D01*
X0033143Y0135665D01*
X0033910Y0134898D01*
X0033910Y0133363D01*
X0033143Y0132596D01*
X0030841Y0129527D02*
X0029307Y0131061D01*
X0061074Y0091665D02*
X0060307Y0090898D01*
X0060307Y0089363D01*
X0061074Y0088596D01*
X0062608Y0088596D01*
X0062608Y0090898D01*
X0061841Y0091665D01*
X0061074Y0091665D01*
X0064143Y0090131D02*
X0062608Y0088596D01*
X0061074Y0087061D02*
X0060307Y0086294D01*
X0060307Y0084759D01*
X0061074Y0083992D01*
X0064143Y0083992D01*
X0064910Y0084759D01*
X0064910Y0086294D01*
X0064143Y0087061D01*
X0064143Y0090131D02*
X0064910Y0091665D01*
X0064074Y0098992D02*
X0063307Y0099759D01*
X0063307Y0101294D01*
X0064074Y0102061D01*
X0065608Y0103596D02*
X0065608Y0106665D01*
X0063307Y0105898D02*
X0067910Y0105898D01*
X0065608Y0103596D01*
X0067143Y0102061D02*
X0067910Y0101294D01*
X0067910Y0099759D01*
X0067143Y0098992D01*
X0064074Y0098992D01*
X0066307Y0125388D02*
X0070910Y0125388D01*
X0070910Y0127690D01*
X0070143Y0128457D01*
X0068608Y0128457D01*
X0067841Y0127690D01*
X0067841Y0125388D01*
X0067841Y0126923D02*
X0066307Y0128457D01*
X0066307Y0129992D02*
X0066307Y0133061D01*
X0066307Y0131527D02*
X0070910Y0131527D01*
X0069376Y0129992D01*
X0068608Y0134596D02*
X0068608Y0137665D01*
X0066307Y0136898D02*
X0070910Y0136898D01*
X0068608Y0134596D01*
X0065347Y0055804D02*
X0063812Y0055804D01*
X0063045Y0055037D01*
X0061510Y0054269D02*
X0059976Y0055804D01*
X0059976Y0051200D01*
X0061510Y0051200D02*
X0058441Y0051200D01*
X0063045Y0051967D02*
X0063812Y0051200D01*
X0065347Y0051200D01*
X0066114Y0051967D01*
X0066114Y0055037D01*
X0065347Y0055804D01*
X0047907Y0056037D02*
X0047907Y0052967D01*
X0047139Y0052200D01*
X0045605Y0052200D01*
X0044837Y0052967D01*
X0043303Y0052200D02*
X0040233Y0055269D01*
X0040233Y0056037D01*
X0041001Y0056804D01*
X0042535Y0056804D01*
X0043303Y0056037D01*
X0044837Y0056037D02*
X0045605Y0056804D01*
X0047139Y0056804D01*
X0047907Y0056037D01*
X0043303Y0052200D02*
X0040233Y0052200D01*
D14*
X0034460Y0017250D02*
X0031458Y0017250D01*
X0032959Y0017250D02*
X0032959Y0021754D01*
X0034460Y0020253D01*
X0036062Y0021003D02*
X0036812Y0021754D01*
X0038314Y0021754D01*
X0039064Y0021003D01*
X0039064Y0018001D01*
X0038314Y0017250D01*
X0036812Y0017250D01*
X0036062Y0018001D01*
X0040632Y0017250D02*
X0042134Y0017250D01*
X0041383Y0017250D02*
X0041383Y0021754D01*
X0042134Y0021754D02*
X0040632Y0021754D01*
X0024107Y0141000D02*
X0024107Y0161000D01*
X0074107Y0161000D01*
X0074107Y0141000D01*
X0024107Y0141000D01*
M02*
