G75*
%MOIN*%
%OFA0B0*%
%FSLAX25Y25*%
%IPPOS*%
%LPD*%
%AMOC8*
5,1,8,0,0,1.08239X$1,22.5*
%
%ADD10R,0.05906X0.05118*%
%ADD11C,0.05200*%
%ADD12R,0.05900X0.07900*%
%ADD13R,0.15000X0.07900*%
%ADD14R,0.05118X0.05906*%
%ADD15R,0.05000X0.15748*%
%ADD16C,0.07400*%
%ADD17R,0.06299X0.05118*%
%ADD18C,0.07087*%
%ADD19C,0.01600*%
%ADD20C,0.03569*%
%ADD21C,0.01000*%
%ADD22R,0.05315X0.05315*%
%ADD23C,0.00800*%
%ADD24R,0.03962X0.03962*%
%ADD25C,0.02400*%
%ADD26C,0.04750*%
%ADD27C,0.03200*%
D10*
X0049107Y0099260D03*
X0049107Y0106740D03*
X0058107Y0106740D03*
X0058107Y0099260D03*
X0070107Y0091740D03*
X0070107Y0084260D03*
D11*
X0062607Y0114000D03*
X0043607Y0114000D03*
D12*
X0041207Y0035400D03*
X0050207Y0035400D03*
X0059207Y0035400D03*
D13*
X0050107Y0010600D03*
D14*
X0046847Y0047000D03*
X0039366Y0047000D03*
X0056366Y0047000D03*
X0063847Y0047000D03*
D15*
X0059107Y0151000D03*
X0069107Y0151000D03*
X0049107Y0151000D03*
X0039107Y0151000D03*
X0029107Y0151000D03*
D16*
X0077107Y0052000D03*
X0077107Y0042000D03*
X0077107Y0032000D03*
D17*
X0059107Y0128260D03*
X0059107Y0135740D03*
X0049107Y0135740D03*
X0049107Y0128260D03*
X0039107Y0128260D03*
X0039107Y0135740D03*
D18*
X0029929Y0024961D03*
X0029929Y0010394D03*
X0070284Y0010394D03*
X0070284Y0024961D03*
D19*
X0018907Y0009800D02*
X0018907Y0156901D01*
X0024807Y0156901D01*
X0024807Y0151450D01*
X0028656Y0151450D01*
X0028656Y0150550D01*
X0024807Y0150550D01*
X0024807Y0142889D01*
X0024929Y0142431D01*
X0025166Y0142021D01*
X0025501Y0141686D01*
X0025912Y0141449D01*
X0026370Y0141326D01*
X0028657Y0141326D01*
X0028657Y0150550D01*
X0029557Y0150550D01*
X0029557Y0151450D01*
X0033407Y0151450D01*
X0033407Y0156901D01*
X0034807Y0156901D01*
X0034807Y0142380D01*
X0035707Y0141480D01*
X0035707Y0140099D01*
X0035211Y0140099D01*
X0034157Y0139045D01*
X0034157Y0132436D01*
X0034592Y0132000D01*
X0034157Y0131564D01*
X0034157Y0124955D01*
X0034812Y0124300D01*
X0033875Y0124300D01*
X0033137Y0125039D01*
X0031819Y0125584D01*
X0030394Y0125584D01*
X0029076Y0125039D01*
X0028068Y0124030D01*
X0027522Y0122713D01*
X0027522Y0121287D01*
X0028068Y0119970D01*
X0029076Y0118961D01*
X0030394Y0118416D01*
X0031819Y0118416D01*
X0033137Y0118961D01*
X0033875Y0119700D01*
X0037338Y0119700D01*
X0038076Y0118961D01*
X0039394Y0118416D01*
X0040819Y0118416D01*
X0042137Y0118961D01*
X0043145Y0119970D01*
X0043365Y0120499D01*
X0046563Y0117301D01*
X0047407Y0116457D01*
X0048510Y0116000D01*
X0058672Y0116000D01*
X0058207Y0114875D01*
X0058207Y0113125D01*
X0058286Y0112932D01*
X0056453Y0111099D01*
X0054408Y0111099D01*
X0053607Y0110298D01*
X0052805Y0111099D01*
X0049760Y0111099D01*
X0047927Y0112932D01*
X0048007Y0113125D01*
X0048007Y0114875D01*
X0047337Y0116492D01*
X0046099Y0117730D01*
X0044482Y0118400D01*
X0042731Y0118400D01*
X0041114Y0117730D01*
X0039876Y0116492D01*
X0039207Y0114875D01*
X0039207Y0113125D01*
X0039876Y0111508D01*
X0041114Y0110270D01*
X0042731Y0109600D01*
X0044354Y0109600D01*
X0044354Y0103436D01*
X0044789Y0103000D01*
X0044713Y0102924D01*
X0044476Y0102514D01*
X0044354Y0102056D01*
X0044354Y0099739D01*
X0048627Y0099739D01*
X0048627Y0098780D01*
X0049586Y0098780D01*
X0049586Y0094901D01*
X0052296Y0094901D01*
X0052754Y0095023D01*
X0053165Y0095260D01*
X0053500Y0095596D01*
X0053607Y0095781D01*
X0053713Y0095596D01*
X0054049Y0095260D01*
X0054459Y0095023D01*
X0054917Y0094901D01*
X0057627Y0094901D01*
X0057627Y0098780D01*
X0058586Y0098780D01*
X0058586Y0094901D01*
X0061296Y0094901D01*
X0061754Y0095023D01*
X0062165Y0095260D01*
X0062500Y0095596D01*
X0062737Y0096006D01*
X0062859Y0096464D01*
X0062859Y0098780D01*
X0058586Y0098780D01*
X0058586Y0099739D01*
X0062859Y0099739D01*
X0062859Y0102056D01*
X0062737Y0102514D01*
X0062500Y0102924D01*
X0062424Y0103000D01*
X0062859Y0103436D01*
X0062859Y0109600D01*
X0063482Y0109600D01*
X0065099Y0110270D01*
X0066337Y0111508D01*
X0067007Y0113125D01*
X0067007Y0114875D01*
X0066541Y0116000D01*
X0069665Y0116000D01*
X0072107Y0112948D01*
X0072107Y0104243D01*
X0069448Y0101584D01*
X0069394Y0101584D01*
X0068076Y0101039D01*
X0067068Y0100030D01*
X0066522Y0098713D01*
X0066522Y0097287D01*
X0067014Y0096099D01*
X0066408Y0096099D01*
X0065354Y0095045D01*
X0065354Y0088436D01*
X0065789Y0088000D01*
X0065713Y0087924D01*
X0065476Y0087514D01*
X0065354Y0087056D01*
X0065354Y0084739D01*
X0069627Y0084739D01*
X0069627Y0083780D01*
X0070586Y0083780D01*
X0070586Y0079901D01*
X0073296Y0079901D01*
X0073754Y0080023D01*
X0074165Y0080260D01*
X0074500Y0080596D01*
X0074737Y0081006D01*
X0074859Y0081464D01*
X0074859Y0083780D01*
X0070586Y0083780D01*
X0070586Y0084739D01*
X0074859Y0084739D01*
X0074859Y0087056D01*
X0074737Y0087514D01*
X0074500Y0087924D01*
X0074424Y0088000D01*
X0074859Y0088436D01*
X0074859Y0095045D01*
X0073805Y0096099D01*
X0073199Y0096099D01*
X0073691Y0097287D01*
X0073691Y0097342D01*
X0075807Y0099457D01*
X0075807Y0081077D01*
X0071274Y0077300D01*
X0058875Y0077300D01*
X0058137Y0078039D01*
X0056819Y0078584D01*
X0055394Y0078584D01*
X0054076Y0078039D01*
X0053068Y0077030D01*
X0052522Y0075713D01*
X0052522Y0074287D01*
X0053068Y0072970D01*
X0054076Y0071961D01*
X0055022Y0071570D01*
X0055022Y0070787D01*
X0055568Y0069470D01*
X0056576Y0068461D01*
X0057894Y0067916D01*
X0059319Y0067916D01*
X0060637Y0068461D01*
X0061375Y0069200D01*
X0072524Y0069200D01*
X0073393Y0069138D01*
X0073464Y0069200D01*
X0073559Y0069200D01*
X0074175Y0069816D01*
X0080965Y0075700D01*
X0081059Y0075700D01*
X0081675Y0076316D01*
X0082333Y0076886D01*
X0082340Y0076980D01*
X0082407Y0077047D01*
X0082407Y0077918D01*
X0082469Y0078786D01*
X0082407Y0078858D01*
X0082407Y0121953D01*
X0081059Y0123300D01*
X0078059Y0126300D01*
X0065059Y0126300D01*
X0064056Y0127303D01*
X0064056Y0131564D01*
X0063621Y0132000D01*
X0064056Y0132436D01*
X0064056Y0139045D01*
X0063002Y0140099D01*
X0061407Y0140099D01*
X0061407Y0141326D01*
X0062352Y0141326D01*
X0063407Y0142380D01*
X0063407Y0156901D01*
X0064807Y0156901D01*
X0064807Y0151450D01*
X0068656Y0151450D01*
X0068656Y0150550D01*
X0064807Y0150550D01*
X0064807Y0142889D01*
X0064929Y0142431D01*
X0065166Y0142021D01*
X0065501Y0141686D01*
X0065912Y0141449D01*
X0066370Y0141326D01*
X0068657Y0141326D01*
X0068657Y0150550D01*
X0069557Y0150550D01*
X0069557Y0151450D01*
X0073407Y0151450D01*
X0073407Y0156901D01*
X0083228Y0156901D01*
X0083228Y0009800D01*
X0075600Y0009800D01*
X0075627Y0009973D01*
X0075627Y0010013D01*
X0070665Y0010013D01*
X0070665Y0010775D01*
X0069903Y0010775D01*
X0069903Y0015737D01*
X0069863Y0015737D01*
X0069032Y0015605D01*
X0068233Y0015346D01*
X0067483Y0014964D01*
X0066803Y0014469D01*
X0066208Y0013875D01*
X0065714Y0013194D01*
X0065332Y0012445D01*
X0065072Y0011645D01*
X0064940Y0010814D01*
X0064940Y0010775D01*
X0069903Y0010775D01*
X0069903Y0010013D01*
X0064940Y0010013D01*
X0064940Y0009973D01*
X0064968Y0009800D01*
X0059407Y0009800D01*
X0059407Y0015296D01*
X0058352Y0016350D01*
X0041861Y0016350D01*
X0040807Y0015296D01*
X0040807Y0009800D01*
X0035245Y0009800D01*
X0035273Y0009973D01*
X0035273Y0010013D01*
X0030311Y0010013D01*
X0030311Y0010775D01*
X0035273Y0010775D01*
X0035273Y0010814D01*
X0035141Y0011645D01*
X0034881Y0012445D01*
X0034499Y0013194D01*
X0034005Y0013875D01*
X0033410Y0014469D01*
X0032730Y0014964D01*
X0031980Y0015346D01*
X0031181Y0015605D01*
X0030350Y0015737D01*
X0030310Y0015737D01*
X0030310Y0010775D01*
X0029548Y0010775D01*
X0029548Y0010013D01*
X0024586Y0010013D01*
X0024586Y0009973D01*
X0024613Y0009800D01*
X0018907Y0009800D01*
X0018907Y0010796D02*
X0024586Y0010796D01*
X0024586Y0010814D02*
X0024586Y0010775D01*
X0029548Y0010775D01*
X0029548Y0015737D01*
X0029509Y0015737D01*
X0028678Y0015605D01*
X0027878Y0015346D01*
X0027129Y0014964D01*
X0026448Y0014469D01*
X0025854Y0013875D01*
X0025359Y0013194D01*
X0024978Y0012445D01*
X0024718Y0011645D01*
X0024586Y0010814D01*
X0024961Y0012394D02*
X0018907Y0012394D01*
X0018907Y0013993D02*
X0025972Y0013993D01*
X0028634Y0015591D02*
X0018907Y0015591D01*
X0018907Y0017190D02*
X0083228Y0017190D01*
X0083228Y0018788D02*
X0018907Y0018788D01*
X0018907Y0020387D02*
X0027137Y0020387D01*
X0027129Y0020391D02*
X0027878Y0020009D01*
X0028678Y0019749D01*
X0029509Y0019617D01*
X0029548Y0019617D01*
X0029548Y0024579D01*
X0030310Y0024579D01*
X0030310Y0019617D01*
X0030350Y0019617D01*
X0031181Y0019749D01*
X0031980Y0020009D01*
X0032730Y0020391D01*
X0033410Y0020885D01*
X0034005Y0021480D01*
X0034499Y0022160D01*
X0034881Y0022910D01*
X0035141Y0023709D01*
X0035273Y0024540D01*
X0035273Y0024580D01*
X0030311Y0024580D01*
X0030311Y0025342D01*
X0035273Y0025342D01*
X0035273Y0025381D01*
X0035141Y0026212D01*
X0034881Y0027012D01*
X0034499Y0027761D01*
X0034005Y0028442D01*
X0033410Y0029036D01*
X0032730Y0029531D01*
X0031980Y0029912D01*
X0031181Y0030172D01*
X0030350Y0030304D01*
X0030310Y0030304D01*
X0030310Y0025342D01*
X0029548Y0025342D01*
X0029548Y0030304D01*
X0029509Y0030304D01*
X0028678Y0030172D01*
X0027878Y0029912D01*
X0027129Y0029531D01*
X0026448Y0029036D01*
X0025854Y0028442D01*
X0025359Y0027761D01*
X0024978Y0027012D01*
X0024718Y0026212D01*
X0024586Y0025381D01*
X0024586Y0025342D01*
X0029548Y0025342D01*
X0029548Y0024580D01*
X0024586Y0024580D01*
X0024586Y0024540D01*
X0024718Y0023709D01*
X0024978Y0022910D01*
X0025359Y0022160D01*
X0025854Y0021480D01*
X0026448Y0020885D01*
X0027129Y0020391D01*
X0025487Y0021985D02*
X0018907Y0021985D01*
X0018907Y0023584D02*
X0024758Y0023584D01*
X0024902Y0026781D02*
X0018907Y0026781D01*
X0018907Y0028379D02*
X0025808Y0028379D01*
X0028079Y0029978D02*
X0018907Y0029978D01*
X0018907Y0031576D02*
X0036457Y0031576D01*
X0036457Y0031213D02*
X0036579Y0030755D01*
X0036816Y0030345D01*
X0037151Y0030010D01*
X0037562Y0029773D01*
X0038020Y0029650D01*
X0040532Y0029650D01*
X0040532Y0034725D01*
X0041882Y0034725D01*
X0041882Y0029650D01*
X0044394Y0029650D01*
X0044851Y0029773D01*
X0045262Y0030010D01*
X0045597Y0030345D01*
X0045677Y0030484D01*
X0046511Y0029650D01*
X0053902Y0029650D01*
X0054707Y0030454D01*
X0055511Y0029650D01*
X0055852Y0029650D01*
X0055567Y0029365D01*
X0054932Y0027830D01*
X0054932Y0026170D01*
X0055567Y0024635D01*
X0056742Y0023461D01*
X0058276Y0022825D01*
X0059937Y0022825D01*
X0061471Y0023461D01*
X0062646Y0024635D01*
X0063281Y0026170D01*
X0063281Y0027830D01*
X0062646Y0029365D01*
X0062361Y0029650D01*
X0062902Y0029650D01*
X0063957Y0030704D01*
X0063957Y0040096D01*
X0062902Y0041150D01*
X0062207Y0041150D01*
X0062207Y0041497D01*
X0061896Y0042247D01*
X0063367Y0042247D01*
X0063367Y0046520D01*
X0064326Y0046520D01*
X0064326Y0042247D01*
X0066643Y0042247D01*
X0067101Y0042370D01*
X0067511Y0042607D01*
X0067846Y0042942D01*
X0068083Y0043352D01*
X0068206Y0043810D01*
X0068206Y0046520D01*
X0064326Y0046520D01*
X0064326Y0047480D01*
X0068206Y0047480D01*
X0068206Y0050190D01*
X0068083Y0050648D01*
X0067846Y0051058D01*
X0067511Y0051393D01*
X0067101Y0051630D01*
X0066643Y0051753D01*
X0066102Y0051753D01*
X0067174Y0052825D01*
X0067937Y0052825D01*
X0069471Y0053461D01*
X0070646Y0054635D01*
X0071281Y0056170D01*
X0071281Y0057830D01*
X0070646Y0059365D01*
X0069471Y0060539D01*
X0067937Y0061175D01*
X0066276Y0061175D01*
X0064742Y0060539D01*
X0063567Y0059365D01*
X0062932Y0057830D01*
X0062932Y0057068D01*
X0061864Y0056000D01*
X0048510Y0056000D01*
X0047407Y0055543D01*
X0046563Y0054699D01*
X0044303Y0052440D01*
X0044019Y0051753D01*
X0043542Y0051753D01*
X0043107Y0051317D01*
X0043031Y0051393D01*
X0042620Y0051630D01*
X0042162Y0051753D01*
X0039846Y0051753D01*
X0039846Y0047480D01*
X0038887Y0047480D01*
X0038887Y0051753D01*
X0036570Y0051753D01*
X0036113Y0051630D01*
X0035702Y0051393D01*
X0035367Y0051058D01*
X0035130Y0050648D01*
X0035007Y0050190D01*
X0035007Y0047480D01*
X0038887Y0047480D01*
X0038887Y0046520D01*
X0039846Y0046520D01*
X0039846Y0042247D01*
X0042162Y0042247D01*
X0042620Y0042370D01*
X0043031Y0042607D01*
X0043107Y0042683D01*
X0043542Y0042247D01*
X0047207Y0042247D01*
X0047207Y0041150D01*
X0046511Y0041150D01*
X0045677Y0040316D01*
X0045597Y0040455D01*
X0045262Y0040790D01*
X0044851Y0041027D01*
X0044394Y0041150D01*
X0041882Y0041150D01*
X0041882Y0036075D01*
X0040532Y0036075D01*
X0040532Y0041150D01*
X0038020Y0041150D01*
X0037562Y0041027D01*
X0037151Y0040790D01*
X0036816Y0040455D01*
X0036579Y0040045D01*
X0036457Y0039587D01*
X0036457Y0036075D01*
X0040531Y0036075D01*
X0040531Y0034725D01*
X0036457Y0034725D01*
X0036457Y0031213D01*
X0037207Y0029978D02*
X0031780Y0029978D01*
X0030310Y0029978D02*
X0029548Y0029978D01*
X0029548Y0028379D02*
X0030310Y0028379D01*
X0030310Y0026781D02*
X0029548Y0026781D01*
X0029548Y0025182D02*
X0018907Y0025182D01*
X0018907Y0033175D02*
X0036457Y0033175D01*
X0036457Y0036372D02*
X0018907Y0036372D01*
X0018907Y0037970D02*
X0036457Y0037970D01*
X0036457Y0039569D02*
X0018907Y0039569D01*
X0018907Y0041167D02*
X0047207Y0041167D01*
X0041882Y0039569D02*
X0040532Y0039569D01*
X0040532Y0037970D02*
X0041882Y0037970D01*
X0041882Y0036372D02*
X0040532Y0036372D01*
X0040531Y0034773D02*
X0018907Y0034773D01*
X0018907Y0042766D02*
X0035543Y0042766D01*
X0035702Y0042607D02*
X0035367Y0042942D01*
X0035130Y0043352D01*
X0035007Y0043810D01*
X0035007Y0046520D01*
X0038887Y0046520D01*
X0038887Y0042247D01*
X0036570Y0042247D01*
X0036113Y0042370D01*
X0035702Y0042607D01*
X0035007Y0044364D02*
X0018907Y0044364D01*
X0018907Y0045963D02*
X0035007Y0045963D01*
X0035007Y0047561D02*
X0018907Y0047561D01*
X0018907Y0049160D02*
X0035007Y0049160D01*
X0035194Y0050758D02*
X0018907Y0050758D01*
X0018907Y0052357D02*
X0044269Y0052357D01*
X0045819Y0053955D02*
X0018907Y0053955D01*
X0018907Y0055554D02*
X0047433Y0055554D01*
X0042611Y0066743D02*
X0083228Y0066743D01*
X0083228Y0065145D02*
X0033218Y0065145D01*
X0033145Y0064970D02*
X0033691Y0066287D01*
X0033691Y0067713D01*
X0033145Y0069030D01*
X0032137Y0070039D01*
X0031407Y0070341D01*
X0031407Y0076231D01*
X0032145Y0076970D01*
X0032691Y0078287D01*
X0032691Y0079713D01*
X0032145Y0081030D01*
X0031137Y0082039D01*
X0029819Y0082584D01*
X0028394Y0082584D01*
X0027076Y0082039D01*
X0026068Y0081030D01*
X0025522Y0079713D01*
X0025522Y0078287D01*
X0026068Y0076970D01*
X0026807Y0076231D01*
X0026807Y0068399D01*
X0026522Y0067713D01*
X0026522Y0066287D01*
X0027068Y0064970D01*
X0028076Y0063961D01*
X0029394Y0063416D01*
X0030819Y0063416D01*
X0032137Y0063961D01*
X0033145Y0064970D01*
X0033691Y0066743D02*
X0039602Y0066743D01*
X0039076Y0066961D02*
X0040394Y0066416D01*
X0041819Y0066416D01*
X0043137Y0066961D01*
X0044145Y0067970D01*
X0044691Y0069287D01*
X0044691Y0070332D01*
X0046407Y0072047D01*
X0046407Y0074231D01*
X0047145Y0074970D01*
X0047691Y0076287D01*
X0047691Y0077713D01*
X0047145Y0079030D01*
X0046675Y0079500D01*
X0046875Y0079700D01*
X0047338Y0079700D01*
X0048076Y0078961D01*
X0049394Y0078416D01*
X0050819Y0078416D01*
X0052137Y0078961D01*
X0053145Y0079970D01*
X0053691Y0081287D01*
X0053691Y0082713D01*
X0053145Y0084030D01*
X0052175Y0085000D01*
X0053145Y0085970D01*
X0053691Y0087287D01*
X0053691Y0088713D01*
X0053145Y0090030D01*
X0052137Y0091039D01*
X0050819Y0091584D01*
X0049775Y0091584D01*
X0046458Y0094901D01*
X0048627Y0094901D01*
X0048627Y0098780D01*
X0044354Y0098780D01*
X0044354Y0097005D01*
X0044059Y0097300D01*
X0039691Y0097300D01*
X0039691Y0097713D01*
X0039145Y0099030D01*
X0038137Y0100039D01*
X0036819Y0100584D01*
X0035394Y0100584D01*
X0034076Y0100039D01*
X0033068Y0099030D01*
X0032522Y0097713D01*
X0032522Y0096287D01*
X0033068Y0094970D01*
X0034076Y0093961D01*
X0035394Y0093416D01*
X0036438Y0093416D01*
X0036996Y0092857D01*
X0036522Y0091713D01*
X0036522Y0090287D01*
X0037068Y0088970D01*
X0037807Y0088231D01*
X0037807Y0086399D01*
X0037522Y0085713D01*
X0037522Y0084287D01*
X0038068Y0082970D01*
X0039076Y0081961D01*
X0040394Y0081416D01*
X0040522Y0081416D01*
X0040522Y0081287D01*
X0041068Y0079970D01*
X0041538Y0079500D01*
X0041068Y0079030D01*
X0040522Y0077713D01*
X0040522Y0076287D01*
X0041068Y0074970D01*
X0041807Y0074231D01*
X0041807Y0073953D01*
X0041438Y0073584D01*
X0040394Y0073584D01*
X0039076Y0073039D01*
X0038068Y0072030D01*
X0037522Y0070713D01*
X0037522Y0069287D01*
X0038068Y0067970D01*
X0039076Y0066961D01*
X0037914Y0068342D02*
X0033430Y0068342D01*
X0032235Y0069940D02*
X0037522Y0069940D01*
X0037864Y0071539D02*
X0031407Y0071539D01*
X0031407Y0073137D02*
X0039315Y0073137D01*
X0041302Y0074736D02*
X0031407Y0074736D01*
X0031510Y0076334D02*
X0040522Y0076334D01*
X0040613Y0077933D02*
X0032544Y0077933D01*
X0032691Y0079532D02*
X0041506Y0079532D01*
X0040587Y0081130D02*
X0032045Y0081130D01*
X0026807Y0074736D02*
X0018907Y0074736D01*
X0018907Y0076334D02*
X0026703Y0076334D01*
X0025669Y0077933D02*
X0018907Y0077933D01*
X0018907Y0079532D02*
X0025522Y0079532D01*
X0026168Y0081130D02*
X0018907Y0081130D01*
X0018907Y0082729D02*
X0038309Y0082729D01*
X0037522Y0084327D02*
X0018907Y0084327D01*
X0018907Y0085926D02*
X0037610Y0085926D01*
X0037807Y0087524D02*
X0018907Y0087524D01*
X0018907Y0089123D02*
X0037005Y0089123D01*
X0036522Y0090721D02*
X0018907Y0090721D01*
X0018907Y0092320D02*
X0036774Y0092320D01*
X0034181Y0093918D02*
X0018907Y0093918D01*
X0018907Y0095517D02*
X0032841Y0095517D01*
X0032522Y0097115D02*
X0018907Y0097115D01*
X0018907Y0098714D02*
X0032937Y0098714D01*
X0034737Y0100312D02*
X0018907Y0100312D01*
X0018907Y0101911D02*
X0044354Y0101911D01*
X0044354Y0103509D02*
X0018907Y0103509D01*
X0018907Y0105108D02*
X0044354Y0105108D01*
X0044354Y0106706D02*
X0018907Y0106706D01*
X0018907Y0108305D02*
X0044354Y0108305D01*
X0041999Y0109903D02*
X0018907Y0109903D01*
X0018907Y0111502D02*
X0039882Y0111502D01*
X0039217Y0113100D02*
X0018907Y0113100D01*
X0018907Y0114699D02*
X0039207Y0114699D01*
X0039796Y0116297D02*
X0018907Y0116297D01*
X0018907Y0117896D02*
X0041514Y0117896D01*
X0042670Y0119494D02*
X0044370Y0119494D01*
X0045699Y0117896D02*
X0045968Y0117896D01*
X0047417Y0116297D02*
X0047792Y0116297D01*
X0048007Y0114699D02*
X0058207Y0114699D01*
X0058217Y0113100D02*
X0047996Y0113100D01*
X0049357Y0111502D02*
X0056856Y0111502D01*
X0062859Y0108305D02*
X0072107Y0108305D01*
X0072107Y0109903D02*
X0064214Y0109903D01*
X0066331Y0111502D02*
X0072107Y0111502D01*
X0071984Y0113100D02*
X0066996Y0113100D01*
X0067007Y0114699D02*
X0070706Y0114699D01*
X0072107Y0106706D02*
X0062859Y0106706D01*
X0062859Y0105108D02*
X0072107Y0105108D01*
X0071373Y0103509D02*
X0062859Y0103509D01*
X0062859Y0101911D02*
X0069775Y0101911D01*
X0067350Y0100312D02*
X0062859Y0100312D01*
X0062859Y0098714D02*
X0066523Y0098714D01*
X0066593Y0097115D02*
X0062859Y0097115D01*
X0062421Y0095517D02*
X0065826Y0095517D01*
X0065354Y0093918D02*
X0047441Y0093918D01*
X0048627Y0095517D02*
X0049586Y0095517D01*
X0049586Y0097115D02*
X0048627Y0097115D01*
X0048627Y0098714D02*
X0049586Y0098714D01*
X0049586Y0098780D02*
X0049586Y0099739D01*
X0053859Y0099739D01*
X0057627Y0099739D01*
X0057627Y0098780D01*
X0049586Y0098780D01*
X0049040Y0092320D02*
X0065354Y0092320D01*
X0065354Y0090721D02*
X0052454Y0090721D01*
X0053521Y0089123D02*
X0065354Y0089123D01*
X0065482Y0087524D02*
X0053691Y0087524D01*
X0053101Y0085926D02*
X0065354Y0085926D01*
X0065354Y0083780D02*
X0065354Y0081464D01*
X0065476Y0081006D01*
X0065713Y0080596D01*
X0066049Y0080260D01*
X0066459Y0080023D01*
X0066917Y0079901D01*
X0069627Y0079901D01*
X0069627Y0083780D01*
X0065354Y0083780D01*
X0065354Y0082729D02*
X0053684Y0082729D01*
X0053626Y0081130D02*
X0065443Y0081130D01*
X0069627Y0081130D02*
X0070586Y0081130D01*
X0070586Y0082729D02*
X0069627Y0082729D01*
X0069627Y0084327D02*
X0052848Y0084327D01*
X0052707Y0079532D02*
X0073952Y0079532D01*
X0074770Y0081130D02*
X0075807Y0081130D01*
X0075807Y0082729D02*
X0074859Y0082729D01*
X0075807Y0084327D02*
X0070586Y0084327D01*
X0074731Y0087524D02*
X0075807Y0087524D01*
X0075807Y0085926D02*
X0074859Y0085926D01*
X0074859Y0089123D02*
X0075807Y0089123D01*
X0075807Y0090721D02*
X0074859Y0090721D01*
X0074859Y0092320D02*
X0075807Y0092320D01*
X0075807Y0093918D02*
X0074859Y0093918D01*
X0074387Y0095517D02*
X0075807Y0095517D01*
X0075807Y0097115D02*
X0073620Y0097115D01*
X0075063Y0098714D02*
X0075807Y0098714D01*
X0082407Y0098714D02*
X0083228Y0098714D01*
X0083228Y0100312D02*
X0082407Y0100312D01*
X0082407Y0101911D02*
X0083228Y0101911D01*
X0083228Y0103509D02*
X0082407Y0103509D01*
X0082407Y0105108D02*
X0083228Y0105108D01*
X0083228Y0106706D02*
X0082407Y0106706D01*
X0082407Y0108305D02*
X0083228Y0108305D01*
X0083228Y0109903D02*
X0082407Y0109903D01*
X0082407Y0111502D02*
X0083228Y0111502D01*
X0083228Y0113100D02*
X0082407Y0113100D01*
X0082407Y0114699D02*
X0083228Y0114699D01*
X0083228Y0116297D02*
X0082407Y0116297D01*
X0082407Y0117896D02*
X0083228Y0117896D01*
X0083228Y0119494D02*
X0082407Y0119494D01*
X0082407Y0121093D02*
X0083228Y0121093D01*
X0083228Y0122691D02*
X0081668Y0122691D01*
X0083228Y0124290D02*
X0080069Y0124290D01*
X0078471Y0125888D02*
X0083228Y0125888D01*
X0083228Y0127487D02*
X0064056Y0127487D01*
X0064056Y0129085D02*
X0083228Y0129085D01*
X0083228Y0130684D02*
X0064056Y0130684D01*
X0063903Y0132282D02*
X0083228Y0132282D01*
X0083228Y0133881D02*
X0064056Y0133881D01*
X0064056Y0135479D02*
X0083228Y0135479D01*
X0083228Y0137078D02*
X0064056Y0137078D01*
X0064056Y0138676D02*
X0083228Y0138676D01*
X0083228Y0140275D02*
X0061407Y0140275D01*
X0062900Y0141873D02*
X0065313Y0141873D01*
X0064807Y0143472D02*
X0063407Y0143472D01*
X0063407Y0145070D02*
X0064807Y0145070D01*
X0064807Y0146669D02*
X0063407Y0146669D01*
X0063407Y0148268D02*
X0064807Y0148268D01*
X0064807Y0149866D02*
X0063407Y0149866D01*
X0063407Y0151465D02*
X0064807Y0151465D01*
X0064807Y0153063D02*
X0063407Y0153063D01*
X0063407Y0154662D02*
X0064807Y0154662D01*
X0064807Y0156260D02*
X0063407Y0156260D01*
X0068657Y0149866D02*
X0069557Y0149866D01*
X0069557Y0150550D02*
X0069557Y0141326D01*
X0071844Y0141326D01*
X0072301Y0141449D01*
X0072712Y0141686D01*
X0073047Y0142021D01*
X0073284Y0142431D01*
X0073407Y0142889D01*
X0073407Y0150550D01*
X0069557Y0150550D01*
X0069557Y0148268D02*
X0068657Y0148268D01*
X0068657Y0146669D02*
X0069557Y0146669D01*
X0069557Y0145070D02*
X0068657Y0145070D01*
X0068657Y0143472D02*
X0069557Y0143472D01*
X0069557Y0141873D02*
X0068657Y0141873D01*
X0072900Y0141873D02*
X0083228Y0141873D01*
X0083228Y0143472D02*
X0073407Y0143472D01*
X0073407Y0145070D02*
X0083228Y0145070D01*
X0083228Y0146669D02*
X0073407Y0146669D01*
X0073407Y0148268D02*
X0083228Y0148268D01*
X0083228Y0149866D02*
X0073407Y0149866D01*
X0073407Y0151465D02*
X0083228Y0151465D01*
X0083228Y0153063D02*
X0073407Y0153063D01*
X0073407Y0154662D02*
X0083228Y0154662D01*
X0083228Y0156260D02*
X0073407Y0156260D01*
X0044354Y0100312D02*
X0037476Y0100312D01*
X0039276Y0098714D02*
X0044354Y0098714D01*
X0044354Y0097115D02*
X0044244Y0097115D01*
X0053421Y0095517D02*
X0053792Y0095517D01*
X0057627Y0095517D02*
X0058586Y0095517D01*
X0058586Y0097115D02*
X0057627Y0097115D01*
X0057627Y0098714D02*
X0058586Y0098714D01*
X0047506Y0079532D02*
X0046707Y0079532D01*
X0047600Y0077933D02*
X0053971Y0077933D01*
X0052780Y0076334D02*
X0047691Y0076334D01*
X0046911Y0074736D02*
X0052522Y0074736D01*
X0052998Y0073137D02*
X0046407Y0073137D01*
X0045898Y0071539D02*
X0055022Y0071539D01*
X0055373Y0069940D02*
X0044691Y0069940D01*
X0044299Y0068342D02*
X0056865Y0068342D01*
X0060348Y0068342D02*
X0083228Y0068342D01*
X0083228Y0069940D02*
X0074319Y0069940D01*
X0076163Y0071539D02*
X0083228Y0071539D01*
X0083228Y0073137D02*
X0078008Y0073137D01*
X0079852Y0074736D02*
X0083228Y0074736D01*
X0083228Y0076334D02*
X0081697Y0076334D01*
X0082408Y0077933D02*
X0083228Y0077933D01*
X0083228Y0079532D02*
X0082407Y0079532D01*
X0082407Y0081130D02*
X0083228Y0081130D01*
X0083228Y0082729D02*
X0082407Y0082729D01*
X0082407Y0084327D02*
X0083228Y0084327D01*
X0083228Y0085926D02*
X0082407Y0085926D01*
X0082407Y0087524D02*
X0083228Y0087524D01*
X0083228Y0089123D02*
X0082407Y0089123D01*
X0082407Y0090721D02*
X0083228Y0090721D01*
X0083228Y0092320D02*
X0082407Y0092320D01*
X0082407Y0093918D02*
X0083228Y0093918D01*
X0083228Y0095517D02*
X0082407Y0095517D01*
X0082407Y0097115D02*
X0083228Y0097115D01*
X0072033Y0077933D02*
X0058242Y0077933D01*
X0064552Y0060349D02*
X0018907Y0060349D01*
X0018907Y0058751D02*
X0063313Y0058751D01*
X0062932Y0057152D02*
X0018907Y0057152D01*
X0018907Y0061948D02*
X0083228Y0061948D01*
X0083228Y0063546D02*
X0031135Y0063546D01*
X0029078Y0063546D02*
X0018907Y0063546D01*
X0018907Y0065145D02*
X0026995Y0065145D01*
X0026522Y0066743D02*
X0018907Y0066743D01*
X0018907Y0068342D02*
X0026783Y0068342D01*
X0026807Y0069940D02*
X0018907Y0069940D01*
X0018907Y0071539D02*
X0026807Y0071539D01*
X0026807Y0073137D02*
X0018907Y0073137D01*
X0038887Y0050758D02*
X0039846Y0050758D01*
X0039846Y0049160D02*
X0038887Y0049160D01*
X0038887Y0047561D02*
X0039846Y0047561D01*
X0039846Y0045963D02*
X0038887Y0045963D01*
X0038887Y0044364D02*
X0039846Y0044364D01*
X0039846Y0042766D02*
X0038887Y0042766D01*
X0040532Y0033175D02*
X0041882Y0033175D01*
X0041882Y0031576D02*
X0040532Y0031576D01*
X0040532Y0029978D02*
X0041882Y0029978D01*
X0045206Y0029978D02*
X0046183Y0029978D01*
X0054230Y0029978D02*
X0055183Y0029978D01*
X0055159Y0028379D02*
X0034050Y0028379D01*
X0034956Y0026781D02*
X0054932Y0026781D01*
X0055341Y0025182D02*
X0030311Y0025182D01*
X0030310Y0023584D02*
X0029548Y0023584D01*
X0029548Y0021985D02*
X0030310Y0021985D01*
X0030310Y0020387D02*
X0029548Y0020387D01*
X0032722Y0020387D02*
X0067491Y0020387D01*
X0067483Y0020391D02*
X0068233Y0020009D01*
X0069032Y0019749D01*
X0069863Y0019617D01*
X0069903Y0019617D01*
X0069903Y0024579D01*
X0070665Y0024579D01*
X0070665Y0019617D01*
X0070704Y0019617D01*
X0071535Y0019749D01*
X0072335Y0020009D01*
X0073084Y0020391D01*
X0073765Y0020885D01*
X0074359Y0021480D01*
X0074854Y0022160D01*
X0075236Y0022910D01*
X0075495Y0023709D01*
X0075627Y0024540D01*
X0075627Y0024580D01*
X0070665Y0024580D01*
X0070665Y0025342D01*
X0069903Y0025342D01*
X0069903Y0030304D01*
X0069863Y0030304D01*
X0069032Y0030172D01*
X0068233Y0029912D01*
X0067483Y0029531D01*
X0066803Y0029036D01*
X0066208Y0028442D01*
X0065714Y0027761D01*
X0065332Y0027012D01*
X0065072Y0026212D01*
X0064940Y0025381D01*
X0064940Y0025342D01*
X0069903Y0025342D01*
X0069903Y0024580D01*
X0064940Y0024580D01*
X0064940Y0024540D01*
X0065072Y0023709D01*
X0065332Y0022910D01*
X0065714Y0022160D01*
X0066208Y0021480D01*
X0066803Y0020885D01*
X0067483Y0020391D01*
X0065841Y0021985D02*
X0034372Y0021985D01*
X0035100Y0023584D02*
X0056619Y0023584D01*
X0059107Y0027000D02*
X0059107Y0035500D01*
X0059207Y0035400D01*
X0062207Y0041167D02*
X0071607Y0041167D01*
X0071607Y0040906D02*
X0072444Y0038884D01*
X0073991Y0037337D01*
X0074805Y0037000D01*
X0073991Y0036663D01*
X0072444Y0035115D01*
X0071607Y0033094D01*
X0071607Y0030906D01*
X0071969Y0030031D01*
X0071535Y0030172D01*
X0070704Y0030304D01*
X0070665Y0030304D01*
X0070665Y0025342D01*
X0075627Y0025342D01*
X0075627Y0025381D01*
X0075495Y0026212D01*
X0075307Y0026792D01*
X0076013Y0026500D01*
X0078201Y0026500D01*
X0080222Y0027337D01*
X0081769Y0028884D01*
X0082607Y0030906D01*
X0082607Y0033094D01*
X0081769Y0035115D01*
X0080222Y0036663D01*
X0079408Y0037000D01*
X0080222Y0037337D01*
X0081769Y0038884D01*
X0082607Y0040906D01*
X0082607Y0043094D01*
X0081769Y0045115D01*
X0080222Y0046663D01*
X0079408Y0047000D01*
X0079989Y0047296D01*
X0080690Y0047805D01*
X0081302Y0048417D01*
X0081811Y0049117D01*
X0082204Y0049889D01*
X0082471Y0050712D01*
X0082607Y0051567D01*
X0082607Y0051800D01*
X0077307Y0051800D01*
X0077307Y0052200D01*
X0082607Y0052200D01*
X0082607Y0052433D01*
X0082471Y0053288D01*
X0082204Y0054111D01*
X0081811Y0054883D01*
X0081302Y0055583D01*
X0080690Y0056195D01*
X0079989Y0056704D01*
X0079218Y0057097D01*
X0078394Y0057365D01*
X0077539Y0057500D01*
X0077307Y0057500D01*
X0077307Y0052200D01*
X0076907Y0052200D01*
X0076907Y0057500D01*
X0076674Y0057500D01*
X0075819Y0057365D01*
X0074995Y0057097D01*
X0074224Y0056704D01*
X0073524Y0056195D01*
X0072911Y0055583D01*
X0072403Y0054883D01*
X0072009Y0054111D01*
X0071742Y0053288D01*
X0071607Y0052433D01*
X0071607Y0052200D01*
X0076906Y0052200D01*
X0076906Y0051800D01*
X0071607Y0051800D01*
X0071607Y0051567D01*
X0071742Y0050712D01*
X0072009Y0049889D01*
X0072403Y0049117D01*
X0072911Y0048417D01*
X0073524Y0047805D01*
X0074224Y0047296D01*
X0074805Y0047000D01*
X0073991Y0046663D01*
X0072444Y0045115D01*
X0071607Y0043094D01*
X0071607Y0040906D01*
X0072160Y0039569D02*
X0063957Y0039569D01*
X0063957Y0037970D02*
X0073358Y0037970D01*
X0073700Y0036372D02*
X0063957Y0036372D01*
X0063957Y0034773D02*
X0072302Y0034773D01*
X0071640Y0033175D02*
X0063957Y0033175D01*
X0063957Y0031576D02*
X0071607Y0031576D01*
X0070665Y0029978D02*
X0069903Y0029978D01*
X0069903Y0028379D02*
X0070665Y0028379D01*
X0070665Y0026781D02*
X0069903Y0026781D01*
X0069903Y0025182D02*
X0062872Y0025182D01*
X0063281Y0026781D02*
X0065257Y0026781D01*
X0066163Y0028379D02*
X0063054Y0028379D01*
X0063230Y0029978D02*
X0068433Y0029978D01*
X0070665Y0025182D02*
X0083228Y0025182D01*
X0083228Y0023584D02*
X0075455Y0023584D01*
X0074727Y0021985D02*
X0083228Y0021985D01*
X0083228Y0020387D02*
X0073076Y0020387D01*
X0070665Y0020387D02*
X0069903Y0020387D01*
X0069903Y0021985D02*
X0070665Y0021985D01*
X0070665Y0023584D02*
X0069903Y0023584D01*
X0065113Y0023584D02*
X0061594Y0023584D01*
X0059111Y0015591D02*
X0068988Y0015591D01*
X0069903Y0015591D02*
X0070665Y0015591D01*
X0070665Y0015737D02*
X0070665Y0010775D01*
X0075627Y0010775D01*
X0075627Y0010814D01*
X0075495Y0011645D01*
X0075236Y0012445D01*
X0074854Y0013194D01*
X0074359Y0013875D01*
X0073765Y0014469D01*
X0073084Y0014964D01*
X0072335Y0015346D01*
X0071535Y0015605D01*
X0070704Y0015737D01*
X0070665Y0015737D01*
X0071579Y0015591D02*
X0083228Y0015591D01*
X0083228Y0013993D02*
X0074241Y0013993D01*
X0075252Y0012394D02*
X0083228Y0012394D01*
X0083228Y0010796D02*
X0075627Y0010796D01*
X0070665Y0010796D02*
X0069903Y0010796D01*
X0069903Y0012394D02*
X0070665Y0012394D01*
X0070665Y0013993D02*
X0069903Y0013993D01*
X0066326Y0013993D02*
X0059407Y0013993D01*
X0059407Y0012394D02*
X0065315Y0012394D01*
X0064940Y0010796D02*
X0059407Y0010796D01*
X0075311Y0026781D02*
X0075335Y0026781D01*
X0078878Y0026781D02*
X0083228Y0026781D01*
X0083228Y0028379D02*
X0081264Y0028379D01*
X0082222Y0029978D02*
X0083228Y0029978D01*
X0083228Y0031576D02*
X0082607Y0031576D01*
X0082573Y0033175D02*
X0083228Y0033175D01*
X0083228Y0034773D02*
X0081911Y0034773D01*
X0083228Y0036372D02*
X0080513Y0036372D01*
X0080855Y0037970D02*
X0083228Y0037970D01*
X0083228Y0039569D02*
X0082053Y0039569D01*
X0082607Y0041167D02*
X0083228Y0041167D01*
X0083228Y0042766D02*
X0082607Y0042766D01*
X0082080Y0044364D02*
X0083228Y0044364D01*
X0083228Y0045963D02*
X0080922Y0045963D01*
X0080354Y0047561D02*
X0083228Y0047561D01*
X0083228Y0049160D02*
X0081832Y0049160D01*
X0082478Y0050758D02*
X0083228Y0050758D01*
X0083228Y0052357D02*
X0082607Y0052357D01*
X0082254Y0053955D02*
X0083228Y0053955D01*
X0083228Y0055554D02*
X0081323Y0055554D01*
X0083228Y0057152D02*
X0079048Y0057152D01*
X0077307Y0057152D02*
X0076907Y0057152D01*
X0076907Y0055554D02*
X0077307Y0055554D01*
X0077307Y0053955D02*
X0076907Y0053955D01*
X0076907Y0052357D02*
X0077307Y0052357D01*
X0075166Y0057152D02*
X0071281Y0057152D01*
X0071026Y0055554D02*
X0072890Y0055554D01*
X0071959Y0053955D02*
X0069966Y0053955D01*
X0071607Y0052357D02*
X0066706Y0052357D01*
X0068019Y0050758D02*
X0071735Y0050758D01*
X0072381Y0049160D02*
X0068206Y0049160D01*
X0068206Y0047561D02*
X0073859Y0047561D01*
X0073291Y0045963D02*
X0068206Y0045963D01*
X0068206Y0044364D02*
X0072133Y0044364D01*
X0071607Y0042766D02*
X0067670Y0042766D01*
X0064326Y0042766D02*
X0063367Y0042766D01*
X0063367Y0044364D02*
X0064326Y0044364D01*
X0064326Y0045963D02*
X0063367Y0045963D01*
X0070900Y0058751D02*
X0083228Y0058751D01*
X0083228Y0060349D02*
X0069661Y0060349D01*
X0041102Y0015591D02*
X0031225Y0015591D01*
X0030310Y0015591D02*
X0029548Y0015591D01*
X0029548Y0013993D02*
X0030310Y0013993D01*
X0030310Y0012394D02*
X0029548Y0012394D01*
X0029548Y0010796D02*
X0030310Y0010796D01*
X0033887Y0013993D02*
X0040807Y0013993D01*
X0040807Y0012394D02*
X0034898Y0012394D01*
X0035273Y0010796D02*
X0040807Y0010796D01*
X0037543Y0119494D02*
X0033670Y0119494D01*
X0034157Y0125888D02*
X0018907Y0125888D01*
X0018907Y0124290D02*
X0028327Y0124290D01*
X0027522Y0122691D02*
X0018907Y0122691D01*
X0018907Y0121093D02*
X0027603Y0121093D01*
X0028543Y0119494D02*
X0018907Y0119494D01*
X0018907Y0127487D02*
X0034157Y0127487D01*
X0034157Y0129085D02*
X0018907Y0129085D01*
X0018907Y0130684D02*
X0034157Y0130684D01*
X0034310Y0132282D02*
X0018907Y0132282D01*
X0018907Y0133881D02*
X0034157Y0133881D01*
X0034157Y0135479D02*
X0018907Y0135479D01*
X0018907Y0137078D02*
X0034157Y0137078D01*
X0034157Y0138676D02*
X0018907Y0138676D01*
X0018907Y0140275D02*
X0035707Y0140275D01*
X0035313Y0141873D02*
X0032900Y0141873D01*
X0033047Y0142021D02*
X0032712Y0141686D01*
X0032301Y0141449D01*
X0031844Y0141326D01*
X0029557Y0141326D01*
X0029557Y0150550D01*
X0033407Y0150550D01*
X0033407Y0142889D01*
X0033284Y0142431D01*
X0033047Y0142021D01*
X0033407Y0143472D02*
X0034807Y0143472D01*
X0034807Y0145070D02*
X0033407Y0145070D01*
X0033407Y0146669D02*
X0034807Y0146669D01*
X0034807Y0148268D02*
X0033407Y0148268D01*
X0033407Y0149866D02*
X0034807Y0149866D01*
X0034807Y0151465D02*
X0033407Y0151465D01*
X0033407Y0153063D02*
X0034807Y0153063D01*
X0034807Y0154662D02*
X0033407Y0154662D01*
X0033407Y0156260D02*
X0034807Y0156260D01*
X0029557Y0149866D02*
X0028657Y0149866D01*
X0028657Y0148268D02*
X0029557Y0148268D01*
X0029557Y0146669D02*
X0028657Y0146669D01*
X0028657Y0145070D02*
X0029557Y0145070D01*
X0029557Y0143472D02*
X0028657Y0143472D01*
X0028657Y0141873D02*
X0029557Y0141873D01*
X0025313Y0141873D02*
X0018907Y0141873D01*
X0018907Y0143472D02*
X0024807Y0143472D01*
X0024807Y0145070D02*
X0018907Y0145070D01*
X0018907Y0146669D02*
X0024807Y0146669D01*
X0024807Y0148268D02*
X0018907Y0148268D01*
X0018907Y0149866D02*
X0024807Y0149866D01*
X0024807Y0151465D02*
X0018907Y0151465D01*
X0018907Y0153063D02*
X0024807Y0153063D01*
X0024807Y0154662D02*
X0018907Y0154662D01*
X0018907Y0156260D02*
X0024807Y0156260D01*
D20*
X0022107Y0141000D03*
X0031107Y0122000D03*
X0023107Y0115000D03*
X0036107Y0097000D03*
X0040107Y0091000D03*
X0041107Y0085000D03*
X0044107Y0082000D03*
X0044107Y0077000D03*
X0040107Y0076000D03*
X0038107Y0080000D03*
X0041107Y0070000D03*
X0050107Y0082000D03*
X0050107Y0088000D03*
X0050107Y0094000D03*
X0056107Y0075000D03*
X0058607Y0071500D03*
X0062107Y0061000D03*
X0076107Y0069000D03*
X0063107Y0092000D03*
X0070107Y0098000D03*
X0070107Y0108000D03*
X0070107Y0112000D03*
X0075107Y0141000D03*
X0075107Y0146000D03*
X0075107Y0151000D03*
X0040107Y0122000D03*
X0029107Y0079000D03*
X0030107Y0067000D03*
X0023107Y0045000D03*
D21*
X0025107Y0046000D01*
X0030107Y0067000D02*
X0029107Y0068000D01*
X0029107Y0079000D01*
X0038107Y0095000D02*
X0036107Y0097000D01*
X0038107Y0095000D02*
X0043107Y0095000D01*
X0050107Y0088000D01*
X0053107Y0091000D02*
X0050107Y0094000D01*
X0050107Y0082000D02*
X0044107Y0082000D01*
X0041107Y0085000D02*
X0040107Y0086000D01*
X0040107Y0091000D01*
X0044107Y0077000D02*
X0044107Y0073000D01*
X0041107Y0070000D01*
X0056107Y0075000D02*
X0072107Y0075000D01*
X0078107Y0080000D01*
X0078107Y0119000D01*
X0075107Y0122000D01*
X0056107Y0122000D01*
X0049847Y0128260D01*
X0049107Y0128260D01*
X0049107Y0135740D02*
X0049107Y0151000D01*
X0059107Y0151000D02*
X0059107Y0135740D01*
X0059107Y0128260D02*
X0059847Y0128260D01*
X0064107Y0124000D01*
X0077107Y0124000D01*
X0080107Y0121000D01*
X0080107Y0078000D01*
X0072607Y0071500D01*
X0058607Y0071500D01*
X0062107Y0092000D02*
X0063107Y0092000D01*
X0058107Y0106740D02*
X0058107Y0109500D01*
X0062607Y0114000D01*
X0049107Y0108500D02*
X0049107Y0106740D01*
X0049107Y0108500D02*
X0043607Y0114000D01*
X0040107Y0122000D02*
X0031107Y0122000D01*
X0022107Y0119000D02*
X0023107Y0115000D01*
X0022107Y0119000D02*
X0021107Y0120000D01*
X0081107Y0063000D02*
X0081107Y0061000D01*
D22*
X0054107Y0019000D03*
D23*
X0054107Y0018000D01*
D24*
X0081107Y0063000D03*
D25*
X0067107Y0057000D02*
X0063107Y0053000D01*
X0049107Y0053000D01*
X0046847Y0050740D01*
X0046847Y0047000D01*
X0050207Y0043640D01*
X0050207Y0035400D01*
X0056107Y0044000D02*
X0056107Y0046740D01*
X0056366Y0047000D01*
X0056107Y0044000D02*
X0059207Y0040900D01*
X0059207Y0035400D01*
X0070107Y0091740D02*
X0070107Y0098000D01*
X0075107Y0103000D01*
X0075107Y0114000D01*
X0071107Y0119000D01*
X0049107Y0119000D01*
X0039847Y0128260D01*
X0039107Y0128260D01*
D26*
X0067107Y0057000D03*
X0059107Y0027000D03*
D27*
X0039107Y0135740D02*
X0039107Y0151000D01*
M02*
