%
M48
M72
T01C0.0197
T02C0.0236
T03C0.0315
T04C0.0320
T05C0.0354
T06C0.0400
T07C0.0472
%
T01
X2311Y4500
X3011Y6700
X2911Y7900
X3811Y8000
X4011Y7600
X4411Y7700
X4411Y8200
X4111Y8500
X4011Y9100
X3611Y9700
X2311Y11500
X3111Y12200
X4011Y12200
X5011Y9400
X5011Y8800
X5011Y8200
X5611Y7500
X5861Y7150
X6211Y6100
X7611Y6900
X6311Y9200
X7011Y9800
X7011Y10800
X7011Y11200
X7511Y14100
X7511Y14600
X7511Y15100
X4111Y7000
X2211Y14100
T02
X8111Y6300
T03
X6711Y5700
X5911Y2700
T04
X6261Y11400
X4361Y11400
T05
X5411Y1900
T06
X7711Y3200
X7711Y4200
X7711Y5200
T07
X7028Y2496
X7028Y1039
X2993Y1039
X2993Y2496
M30
